<svg width="343" height="96" viewBox="0 0 343 96" fill="none" xmlns="http://www.w3.org/2000/svg">
<path d="M-47.051 1.45599H-22.155V94H-44.619L-83.339 38.832V94H-108.235V1.45599H-83.147L-47.051 53.04V1.45599ZM36.228 0.175995C43.5667 0.175995 50.1373 1.62666 55.94 4.52799C61.7427 7.38666 66.436 11.376 70.02 16.496C73.604 21.5733 75.7373 27.44 76.42 34.096H50.436C49.9667 31.2373 49.092 28.7627 47.812 26.672C46.532 24.5813 44.8467 22.9813 42.756 21.872C40.708 20.72 38.2547 20.144 35.396 20.144C32.2813 20.144 29.508 20.9547 27.076 22.576C24.644 24.1973 22.724 26.9707 21.316 30.896C19.9507 34.7787 19.268 40.112 19.268 46.896C19.268 57.1787 20.7827 64.496 23.812 68.848C26.8413 73.1573 30.7027 75.312 35.396 75.312C38.2547 75.312 40.708 74.5867 42.756 73.136C44.8467 71.6853 46.532 69.7653 47.812 67.376C49.092 64.944 49.9667 62.2987 50.436 59.44H76.42C75.78 64.2187 74.692 68.7627 73.156 73.072C71.6627 77.3813 69.4227 81.2213 66.436 84.592C63.492 87.92 59.5667 90.544 54.66 92.464C49.7533 94.3413 43.6093 95.28 36.228 95.28C27.3107 95.28 19.524 93.168 12.868 88.944C6.25467 84.72 1.11333 78.9387 -2.556 71.6C-6.22533 64.2613 -8.06 55.8987 -8.06 46.512C-8.06 37.1253 -6.24667 28.976 -2.62 22.064C1.00667 15.1093 6.12667 9.73333 12.74 5.936C19.396 2.096 27.2253 0.175995 36.228 0.175995ZM79.92 94L112.688 1.45599H138.16L170.928 94H146.352L140.208 76.08H111.024L104.752 94H79.92ZM116.272 54.832H134.576L125.488 25.264L116.272 54.832ZM217.464 95.28C212.685 95.28 207.949 94.6827 203.256 93.488C198.605 92.2933 194.317 90.48 190.392 88.048C186.509 85.616 183.309 82.5653 180.792 78.896C178.275 75.184 176.824 70.832 176.44 65.84H201.784C202.253 68.016 203.171 69.872 204.536 71.408C205.901 72.944 207.672 74.1387 209.848 74.992C212.024 75.8027 214.52 76.208 217.336 76.208C219.896 76.208 222.307 75.952 224.568 75.44C226.872 74.928 228.728 74.0747 230.136 72.88C231.587 71.6427 232.312 69.936 232.312 67.76C232.312 65.8827 231.565 64.432 230.072 63.408C228.621 62.384 226.723 61.5947 224.376 61.04C222.072 60.4853 219.64 59.9947 217.08 59.568L202.936 57.136C195.853 55.984 190.136 53.1253 185.784 48.56C181.475 43.952 179.235 37.7227 179.064 29.872C178.979 23.6427 180.643 18.3307 184.056 13.936C187.512 9.49866 192.12 6.128 197.88 3.824C203.683 1.47733 210.083 0.303993 217.08 0.303993C225.528 0.303993 232.675 1.54133 238.52 4.016C244.365 6.49066 248.803 9.92533 251.832 14.32C254.904 18.7147 256.504 23.7707 256.632 29.488H231.928C231.672 27.0987 230.947 25.1787 229.752 23.728C228.557 22.2347 226.936 21.168 224.888 20.528C222.883 19.8453 220.451 19.504 217.592 19.504C215.203 19.504 213.197 19.7387 211.576 20.208C209.997 20.6347 208.739 21.2107 207.8 21.936C206.861 22.6187 206.179 23.3867 205.752 24.24C205.368 25.0933 205.176 25.9467 205.176 26.8C205.176 28.8907 205.837 30.576 207.16 31.856C208.483 33.136 211.128 34.1387 215.096 34.864L229.304 37.296C235.917 38.448 241.101 40.24 244.856 42.672C248.611 45.0613 251.363 47.7707 253.112 50.8C254.904 53.8293 256.035 56.8373 256.504 59.824C256.973 62.8107 257.208 65.456 257.208 67.76C257.208 73.008 255.459 77.7227 251.96 81.904C248.504 86.0427 243.789 89.3067 237.816 91.696C231.843 94.0853 225.059 95.28 217.464 95.28ZM265.295 23.344V1.45599H342.991V23.344H316.495V94H291.535V23.344H265.295Z" fill="white" fill-opacity="0.5"/>
</svg>
