<svg width="337" height="96" viewBox="0 0 337 96" fill="none" xmlns="http://www.w3.org/2000/svg">
<path d="M61.949 1.45599H86.845V94H64.381L25.661 38.832V94H0.765V1.45599H25.853L61.949 53.04V1.45599ZM145.228 0.175995C152.567 0.175995 159.137 1.62666 164.94 4.52799C170.743 7.38666 175.436 11.376 179.02 16.496C182.604 21.5733 184.737 27.44 185.42 34.096H159.436C158.967 31.2373 158.092 28.7627 156.812 26.672C155.532 24.5813 153.847 22.9813 151.756 21.872C149.708 20.72 147.255 20.144 144.396 20.144C141.281 20.144 138.508 20.9547 136.076 22.576C133.644 24.1973 131.724 26.9707 130.316 30.896C128.951 34.7787 128.268 40.112 128.268 46.896C128.268 57.1787 129.783 64.496 132.812 68.848C135.841 73.1573 139.703 75.312 144.396 75.312C147.255 75.312 149.708 74.5867 151.756 73.136C153.847 71.6853 155.532 69.7653 156.812 67.376C158.092 64.944 158.967 62.2987 159.436 59.44H185.42C184.78 64.2187 183.692 68.7627 182.156 73.072C180.663 77.3813 178.423 81.2213 175.436 84.592C172.492 87.92 168.567 90.544 163.66 92.464C158.753 94.3413 152.609 95.28 145.228 95.28C136.311 95.28 128.524 93.168 121.868 88.944C115.255 84.72 110.113 78.9387 106.444 71.6C102.775 64.2613 100.94 55.8987 100.94 46.512C100.94 37.1253 102.753 28.976 106.38 22.064C110.007 15.1093 115.127 9.73333 121.74 5.936C128.396 2.096 136.225 0.175995 145.228 0.175995ZM188.92 94L221.688 1.45599H247.16L279.928 94H255.352L249.208 76.08H220.024L213.752 94H188.92ZM225.272 54.832H243.576L234.488 25.264L225.272 54.832ZM326.464 95.28C321.685 95.28 316.949 94.6827 312.256 93.488C307.605 92.2933 303.317 90.48 299.392 88.048C295.509 85.616 292.309 82.5653 289.792 78.896C287.275 75.184 285.824 70.832 285.44 65.84H310.784C311.253 68.016 312.171 69.872 313.536 71.408C314.901 72.944 316.672 74.1387 318.848 74.992C321.024 75.8027 323.52 76.208 326.336 76.208C328.896 76.208 331.307 75.952 333.568 75.44C335.872 74.928 337.728 74.0747 339.136 72.88C340.587 71.6427 341.312 69.936 341.312 67.76C341.312 65.8827 340.565 64.432 339.072 63.408C337.621 62.384 335.723 61.5947 333.376 61.04C331.072 60.4853 328.64 59.9947 326.08 59.568L311.936 57.136C304.853 55.984 299.136 53.1253 294.784 48.56C290.475 43.952 288.235 37.7227 288.064 29.872C287.979 23.6427 289.643 18.3307 293.056 13.936C296.512 9.49866 301.12 6.128 306.88 3.824C312.683 1.47733 319.083 0.303993 326.08 0.303993C334.528 0.303993 341.675 1.54133 347.52 4.016C353.365 6.49066 357.803 9.92533 360.832 14.32C363.904 18.7147 365.504 23.7707 365.632 29.488H340.928C340.672 27.0987 339.947 25.1787 338.752 23.728C337.557 22.2347 335.936 21.168 333.888 20.528C331.883 19.8453 329.451 19.504 326.592 19.504C324.203 19.504 322.197 19.7387 320.576 20.208C318.997 20.6347 317.739 21.2107 316.8 21.936C315.861 22.6187 315.179 23.3867 314.752 24.24C314.368 25.0933 314.176 25.9467 314.176 26.8C314.176 28.8907 314.837 30.576 316.16 31.856C317.483 33.136 320.128 34.1387 324.096 34.864L338.304 37.296C344.917 38.448 350.101 40.24 353.856 42.672C357.611 45.0613 360.363 47.7707 362.112 50.8C363.904 53.8293 365.035 56.8373 365.504 59.824C365.973 62.8107 366.208 65.456 366.208 67.76C366.208 73.008 364.459 77.7227 360.96 81.904C357.504 86.0427 352.789 89.3067 346.816 91.696C340.843 94.0853 334.059 95.28 326.464 95.28ZM374.295 23.344V1.45599H451.991V23.344H425.495V94H400.535V23.344H374.295Z" fill="white" fill-opacity="0.5"/>
</svg>
