<svg width="48" height="48" viewBox="0 0 48 48" fill="none" xmlns="http://www.w3.org/2000/svg">
<rect opacity="0.1" width="48" height="48" rx="24" fill="#1F1F1F"/>
<g clip-path="url(#clip0_46_28)">
<g filter="url(#filter0_d_46_28)">
<path d="M31.5042 27.5125C31.0142 26.6716 30.4301 25.0752 30.4301 22.2481V21.6623C30.4355 19.9152 29.7524 18.2363 28.5287 16.9893C27.3051 15.7423 25.6394 15.0276 23.8925 15H23.8422C22.0952 15 20.4197 15.694 19.1844 16.9293C17.949 18.1646 17.2549 19.84 17.2548 21.587V22.2463C17.2548 25.0734 16.6703 26.6694 16.1803 27.5103C16.0632 27.7105 16.0011 27.938 16.0001 28.1699C15.9992 28.4018 16.0595 28.6298 16.1749 28.8309C16.2903 29.0321 16.4567 29.1992 16.6574 29.3154C16.8581 29.4315 17.0859 29.4927 17.3178 29.4926H30.3667C30.5985 29.4926 30.8262 29.4315 31.0268 29.3153C31.2275 29.1992 31.3939 29.0321 31.5093 28.8311C31.6247 28.63 31.685 28.402 31.6841 28.1702C31.6832 27.9384 31.6211 27.7109 31.5042 27.5107V27.5125Z" fill="#1F1F1F"/>
<path d="M26.4711 30.8104H21.201C21.1131 30.8081 21.0256 30.8235 20.9437 30.8556C20.8618 30.8876 20.7872 30.9358 20.7242 30.9972C20.6612 31.0586 20.6111 31.1319 20.5769 31.213C20.5428 31.294 20.5251 31.3811 20.5251 31.469C20.5251 31.557 20.5428 31.6441 20.5769 31.7251C20.6111 31.8061 20.6612 31.8795 20.7242 31.9409C20.7872 32.0023 20.8618 32.0504 20.9437 32.0825C21.0256 32.1146 21.1131 32.13 21.201 32.1277H26.4711C26.559 32.13 26.6465 32.1146 26.7284 32.0825C26.8103 32.0504 26.885 32.0023 26.948 31.9409C27.0109 31.8795 27.061 31.8061 27.0952 31.7251C27.1294 31.6441 27.147 31.557 27.147 31.469C27.147 31.3811 27.1294 31.294 27.0952 31.213C27.061 31.1319 27.0109 31.0586 26.948 30.9972C26.885 30.9358 26.8103 30.8876 26.7284 30.8556C26.6465 30.8235 26.559 30.8081 26.4711 30.8104Z" fill="#1F1F1F"/>
</g>
</g>
<defs>
<filter id="filter0_d_46_28" x="12.0001" y="15" width="23.684" height="25.1279" filterUnits="userSpaceOnUse" color-interpolation-filters="sRGB">
<feFlood flood-opacity="0" result="BackgroundImageFix"/>
<feColorMatrix in="SourceAlpha" type="matrix" values="0 0 0 0 0 0 0 0 0 0 0 0 0 0 0 0 0 0 127 0" result="hardAlpha"/>
<feOffset dy="4"/>
<feGaussianBlur stdDeviation="2"/>
<feComposite in2="hardAlpha" operator="out"/>
<feColorMatrix type="matrix" values="0 0 0 0 0 0 0 0 0 0 0 0 0 0 0 0 0 0 0.25 0"/>
<feBlend mode="normal" in2="BackgroundImageFix" result="effect1_dropShadow_46_28"/>
<feBlend mode="normal" in="SourceGraphic" in2="effect1_dropShadow_46_28" result="shape"/>
</filter>
<clipPath id="clip0_46_28">
<rect width="21" height="21" fill="white" transform="translate(13 13)"/>
</clipPath>
</defs>
</svg>
