<svg width="222" height="46" viewBox="0 0 222 46" fill="none" xmlns="http://www.w3.org/2000/svg">
<path d="M86.7012 38.7676L70.4062 22.1738V38.7676H63.8848V14.6152H70.9688L87.2812 31.2793V14.6152H93.7676V38.7676H86.7012Z" fill="#4C0099"/>
<path d="M127.939 37.1152C127.096 37.4668 126.246 37.7832 125.391 38.0645C124.535 38.3457 123.65 38.5859 122.736 38.7852C121.822 38.9961 120.855 39.1543 119.836 39.2598C118.828 39.3652 117.744 39.418 116.584 39.418C114.123 39.418 111.855 39.1543 109.781 38.627C107.719 38.0996 105.938 37.3086 104.438 36.2539C102.949 35.1875 101.789 33.8633 100.957 32.2812C100.125 30.6875 99.709 28.8301 99.709 26.709C99.709 24.5879 100.125 22.7363 100.957 21.1543C101.789 19.5605 102.949 18.2363 104.438 17.1816C105.938 16.1152 107.719 15.3184 109.781 14.791C111.855 14.2637 114.123 14 116.584 14C117.744 14 118.828 14.0527 119.836 14.1582C120.855 14.2637 121.822 14.4219 122.736 14.6328C123.65 14.832 124.535 15.0723 125.391 15.3535C126.246 15.6348 127.096 15.9512 127.939 16.3027V22.1738C127.271 21.8105 126.568 21.4531 125.83 21.1016C125.092 20.7383 124.277 20.416 123.387 20.1348C122.496 19.8418 121.518 19.6074 120.451 19.4316C119.385 19.2441 118.184 19.1504 116.848 19.1504C114.797 19.1504 113.092 19.3613 111.732 19.7832C110.385 20.2051 109.307 20.7676 108.498 21.4707C107.689 22.1738 107.121 22.9824 106.793 23.8965C106.465 24.7988 106.301 25.7363 106.301 26.709C106.301 27.3535 106.371 27.9922 106.512 28.625C106.652 29.2461 106.887 29.8379 107.215 30.4004C107.543 30.9512 107.971 31.4609 108.498 31.9297C109.025 32.3984 109.682 32.8027 110.467 33.1426C111.252 33.4824 112.166 33.752 113.209 33.9512C114.264 34.1387 115.477 34.2324 116.848 34.2324C118.184 34.2324 119.385 34.1504 120.451 33.9863C121.518 33.8105 122.496 33.582 123.387 33.3008C124.277 33.0195 125.092 32.7031 125.83 32.3516C126.568 31.9883 127.271 31.6191 127.939 31.2441V37.1152Z" fill="#4C0099"/>
<path d="M153.604 34.1973H140.139L137.871 38.7676H130.594L143.232 14.6152H150.51L163.148 38.7676H155.871L153.604 34.1973ZM142.477 29.4863H151.301L146.906 20.5918L142.477 29.4863Z" fill="#4C0099"/>
<path d="M189.357 21.418C188.9 21.1953 188.297 20.9434 187.547 20.6621C186.797 20.3809 185.947 20.1172 184.998 19.8711C184.049 19.6133 183.018 19.4023 181.904 19.2383C180.791 19.0625 179.648 18.9746 178.477 18.9746C177.539 18.9746 176.736 19.0039 176.068 19.0625C175.412 19.1211 174.855 19.1973 174.398 19.291C173.953 19.3848 173.596 19.4961 173.326 19.625C173.068 19.7422 172.869 19.8652 172.729 19.9941C172.588 20.123 172.494 20.252 172.447 20.3809C172.412 20.5098 172.395 20.627 172.395 20.7324C172.395 21.084 172.57 21.3945 172.922 21.6641C173.273 21.9219 173.754 22.1562 174.363 22.3672C174.973 22.5664 175.682 22.7598 176.49 22.9473C177.299 23.123 178.154 23.3105 179.057 23.5098C179.971 23.6973 180.908 23.9082 181.869 24.1426C182.842 24.3652 183.779 24.6289 184.682 24.9336C185.596 25.2383 186.457 25.5957 187.266 26.0059C188.074 26.4043 188.783 26.873 189.393 27.4121C190.002 27.9512 190.482 28.5723 190.834 29.2754C191.186 29.9785 191.361 30.7812 191.361 31.6836C191.361 32.8438 191.156 33.8398 190.746 34.6719C190.336 35.5039 189.785 36.207 189.094 36.7812C188.414 37.3555 187.623 37.8184 186.721 38.1699C185.818 38.5098 184.869 38.7734 183.873 38.9609C182.889 39.1484 181.887 39.2715 180.867 39.3301C179.859 39.3887 178.898 39.418 177.984 39.418C175.594 39.418 173.379 39.2188 171.34 38.8203C169.312 38.4336 167.52 37.9473 165.961 37.3613V31.5957C167.566 32.4863 169.395 33.1836 171.445 33.6875C173.508 34.1914 175.711 34.4434 178.055 34.4434C179.438 34.4434 180.562 34.373 181.43 34.2324C182.309 34.0801 182.994 33.8926 183.486 33.6699C183.979 33.4355 184.312 33.1836 184.488 32.9141C184.664 32.6445 184.752 32.3867 184.752 32.1406C184.752 31.7539 184.576 31.4199 184.225 31.1387C183.873 30.8457 183.393 30.5938 182.783 30.3828C182.174 30.1602 181.465 29.9609 180.656 29.7852C179.848 29.5977 178.986 29.416 178.072 29.2402C177.17 29.0527 176.238 28.8535 175.277 28.6426C174.316 28.4316 173.379 28.1855 172.465 27.9043C171.562 27.6113 170.707 27.2773 169.898 26.9023C169.09 26.5156 168.381 26.0645 167.771 25.5488C167.162 25.0215 166.682 24.418 166.33 23.7383C165.979 23.0469 165.803 22.25 165.803 21.3477C165.803 20.2812 165.99 19.3613 166.365 18.5879C166.74 17.8145 167.244 17.1582 167.877 16.6191C168.521 16.0684 169.26 15.623 170.092 15.2832C170.936 14.9434 171.82 14.6797 172.746 14.4922C173.672 14.3047 174.609 14.1758 175.559 14.1055C176.508 14.0352 177.41 14 178.266 14C179.203 14 180.164 14.0469 181.148 14.1406C182.145 14.2344 183.123 14.3691 184.084 14.5449C185.045 14.709 185.971 14.9023 186.861 15.125C187.764 15.3477 188.596 15.582 189.357 15.8281V21.418Z" fill="#4C0099"/>
<path d="M211.084 19.8711V38.7676H204.562V19.8711H194.314V14.6152H221.35V19.8711H211.084Z" fill="#4C0099"/>
<g clip-path="url(#clip0_90_29)">
<path d="M16.6664 24.6227L32.6692 40.6255C31.3992 43.6052 28.4435 45.6944 24.9993 45.6944C20.3971 45.6944 16.6657 41.9637 16.6657 37.3608V24.6227H16.6664Z" fill="#4C0099"/>
<path d="M33.3329 20.6944V33.4324L17.3301 17.4297C18.6001 14.45 21.5558 12.3608 24.9993 12.3608C27.3008 12.3608 29.3842 13.2935 30.8918 14.8018C32.3995 16.3102 33.3329 18.3936 33.3329 20.6944Z" fill="#4C0099"/>
<path d="M11.1112 17.9168V40.1391C4.97441 40.1391 0 35.1647 0 29.0279C0 22.8912 4.97441 17.9168 11.1112 17.9168Z" fill="#4C0099"/>
<path d="M38.8888 17.9168V40.1391C45.0256 40.1391 50 35.1647 50 29.0279C50 22.8912 45.0256 17.9168 38.8888 17.9168Z" fill="#4C0099"/>
<path d="M45.6943 23.472H43.1944V20.6944C43.1944 10.6619 35.0324 2.49993 25 2.49993C14.9675 2.49993 6.80553 10.6619 6.80553 20.6944V23.472H4.3056V20.6944C4.3056 17.9015 4.85298 15.1907 5.93248 12.6385C6.97491 10.1742 8.46658 7.96139 10.3668 6.06118C12.267 4.16097 14.4798 2.6693 16.9441 1.62688C19.4963 0.547382 22.2071 0 25 0C27.7929 0 30.5036 0.547382 33.0559 1.62688C35.5202 2.6693 37.733 4.16097 39.6332 6.06118C41.5334 7.96139 43.025 10.1742 44.0675 12.6385C45.147 15.1907 45.6943 17.9008 45.6943 20.6944V23.472Z" fill="#4C0099"/>
</g>
<defs>
<clipPath id="clip0_90_29">
<rect width="50" height="45.6944" fill="white"/>
</clipPath>
</defs>
</svg>
