<svg width="364" height="285" viewBox="0 0 364 285" fill="none" xmlns="http://www.w3.org/2000/svg">
<g opacity="0.16">
<mask id="mask0_78_132" style="mask-type:alpha" maskUnits="userSpaceOnUse" x="0" y="0" width="364" height="285">
<rect width="364" height="285" rx="24" fill="#573AFF"/>
</mask>
<g mask="url(#mask0_78_132)">
<g opacity="0.5">
<path d="M499.044 213.613L80.7952 631.862L85.0056 636.072L503.255 217.823L499.044 213.613Z" fill="#1F1F1F"/>
<path d="M488.956 198.483L70.709 616.73L74.9194 620.94L493.166 202.694L488.956 198.483Z" fill="#1F1F1F"/>
<path d="M478.867 183.349L60.6206 601.596L64.831 605.806L483.078 187.559L478.867 183.349Z" fill="#1F1F1F"/>
<path d="M468.779 168.22L50.5322 586.466L54.7426 590.677L472.989 172.43L468.779 168.22Z" fill="#1F1F1F"/>
<path d="M458.694 153.086L40.447 571.333L44.6574 575.543L462.904 157.296L458.694 153.086Z" fill="#1F1F1F"/>
<path d="M448.603 137.957L30.3564 556.204L34.5669 560.414L452.814 142.168L448.603 137.957Z" fill="#1F1F1F"/>
<path d="M438.517 122.825L20.2703 541.072L24.4807 545.283L442.727 127.036L438.517 122.825Z" fill="#1F1F1F"/>
<path d="M428.426 107.694L10.1794 525.941L14.3899 530.151L432.637 111.904L428.426 107.694Z" fill="#1F1F1F"/>
<path d="M418.34 92.5652L0.0932617 510.812L4.30369 515.022L422.55 96.7756L418.34 92.5652Z" fill="#1F1F1F"/>
<path d="M408.252 77.4312L-9.99512 495.678L-5.7847 499.888L412.462 81.6416L408.252 77.4312Z" fill="#1F1F1F"/>
<path d="M398.164 62.2995L-20.0825 480.546L-15.8721 484.757L402.375 66.5099L398.164 62.2995Z" fill="#1F1F1F"/>
<path d="M388.078 47.1677L-30.1687 465.414L-25.9583 469.625L392.288 51.3781L388.078 47.1677Z" fill="#1F1F1F"/>
<path d="M377.987 32.0362L-40.2593 450.283L-36.0489 454.493L382.198 36.2466L377.987 32.0362Z" fill="#1F1F1F"/>
<path d="M367.901 16.9042L-50.3455 435.151L-46.135 439.361L372.112 21.1146L367.901 16.9042Z" fill="#1F1F1F"/>
<path d="M357.811 1.77266L-60.436 420.019L-56.2256 424.23L362.021 5.98308L357.811 1.77266Z" fill="#1F1F1F"/>
<path d="M347.725 -13.3614L-70.5215 404.885L-66.3111 409.096L351.936 -9.15096L347.725 -13.3614Z" fill="#1F1F1F"/>
<path d="M337.639 -28.4931L-80.6074 389.754L-76.397 393.964L341.85 -24.2827L337.639 -28.4931Z" fill="#1F1F1F"/>
<path d="M327.549 -43.6249L-90.6982 374.622L-86.4878 378.832L331.759 -39.4144L327.549 -43.6249Z" fill="#1F1F1F"/>
<path d="M317.46 -58.7588L-100.787 359.488L-96.5762 363.698L321.671 -54.5484L317.46 -58.7588Z" fill="#1F1F1F"/>
<path d="M307.374 -73.8874L-110.873 344.359L-106.662 348.57L311.584 -69.677L307.374 -73.8874Z" fill="#1F1F1F"/>
<path d="M297.283 -89.019L-120.963 329.228L-116.753 333.438L301.494 -84.8085L297.283 -89.019Z" fill="#1F1F1F"/>
<path d="M287.2 -104.151L-131.046 314.096L-126.836 318.306L291.411 -99.9405L287.2 -104.151Z" fill="#1F1F1F"/>
<path d="M277.11 -119.283L-141.137 298.964L-136.927 303.175L281.32 -115.072L277.11 -119.283Z" fill="#1F1F1F"/>
<path d="M267.021 -134.416L-151.226 283.83L-147.015 288.041L271.232 -130.206L267.021 -134.416Z" fill="#1F1F1F"/>
<path d="M256.933 -149.546L-161.314 268.701L-157.104 272.911L261.143 -145.336L256.933 -149.546Z" fill="#1F1F1F"/>
<path d="M246.847 -164.682L-171.402 253.567L-167.192 257.777L251.057 -160.472L246.847 -164.682Z" fill="#1F1F1F"/>
<path d="M236.756 -179.814L-181.491 238.433L-177.28 242.643L240.966 -175.604L236.756 -179.814Z" fill="#1F1F1F"/>
<path d="M226.671 -194.943L-191.576 223.303L-187.366 227.514L230.881 -190.733L226.671 -194.943Z" fill="#1F1F1F"/>
</g>
</g>
</g>
</svg>
