<svg width="32" height="32" viewBox="0 0 32 32" fill="none" xmlns="http://www.w3.org/2000/svg">
<g opacity="0.5">
<path d="M27.9639 8.75068L25.9166 4.65801C25.8316 4.4883 25.7012 4.34554 25.5398 4.24571C25.3784 4.14587 25.1924 4.09289 25.0026 4.09268H6.58325C6.39323 4.09264 6.20696 4.14551 6.0453 4.24536C5.88363 4.3452 5.75296 4.48809 5.66792 4.65801L3.62192 8.75068C3.55091 8.89268 3.51393 9.04925 3.51392 9.20801V26.6013C3.51462 27.1438 3.73041 27.6638 4.11395 28.0473C4.4975 28.4309 5.0175 28.6466 5.55992 28.6473H26.0252C26.5677 28.6466 27.0877 28.4309 27.4712 28.0473C27.8548 27.6638 28.0705 27.1438 28.0712 26.6013V9.20868C28.0712 9.04992 28.0342 8.89335 27.9632 8.75135L27.9639 8.75068ZM20.8586 19.9147L16.5166 24.256L16.4946 24.2753C16.4772 24.2913 16.4606 24.3073 16.4426 24.3227L16.4159 24.3427C16.3979 24.3567 16.3806 24.37 16.3619 24.3827L16.3399 24.396C16.3193 24.4093 16.2979 24.4227 16.2732 24.434L16.2566 24.442C16.2326 24.4547 16.2079 24.4667 16.1826 24.4773L16.1712 24.4813C16.1439 24.492 16.1166 24.5027 16.0886 24.5107H16.0772C16.0492 24.5187 16.0206 24.5267 15.9919 24.532L15.9666 24.536C15.9419 24.54 15.9179 24.5447 15.8926 24.5467C15.8248 24.5536 15.7564 24.5536 15.6886 24.5467C15.6639 24.5467 15.6392 24.54 15.6146 24.536L15.5893 24.532C15.5606 24.526 15.5319 24.5187 15.5039 24.5107H15.4926C15.4639 24.502 15.4366 24.492 15.4093 24.4807L15.3986 24.4767C15.3733 24.466 15.3486 24.454 15.3246 24.4413L15.3079 24.4333C15.2859 24.4213 15.2653 24.4087 15.2413 24.3953L15.2192 24.382C15.2006 24.3693 15.1832 24.3553 15.1652 24.342L15.1386 24.322C15.1206 24.3073 15.1046 24.2913 15.0879 24.276C15.0712 24.2607 15.0719 24.2627 15.0646 24.2553L10.7299 19.9147C10.5434 19.7217 10.4401 19.4632 10.4423 19.1949C10.4446 18.9265 10.5521 18.6698 10.7419 18.48C10.9316 18.2901 11.1883 18.1825 11.4566 18.1801C11.725 18.1777 11.9836 18.2809 12.1766 18.4673L14.7706 21.0613V13.3007C14.7774 13.0339 14.8882 12.7803 15.0793 12.594C15.2704 12.4077 15.5267 12.3035 15.7936 12.3035C16.0605 12.3035 16.3168 12.4077 16.5079 12.594C16.699 12.7803 16.8098 13.0339 16.8166 13.3007V21.062L19.4106 18.468C19.6036 18.2816 19.8622 18.1784 20.1305 18.1808C20.3989 18.1831 20.6556 18.2908 20.8453 18.4806C21.035 18.6704 21.1426 18.9272 21.1448 19.1955C21.1471 19.4639 21.0438 19.7224 20.8573 19.9153L20.8586 19.9147ZM6.19525 8.18535L7.21858 6.13935H24.3699L25.3932 8.18535H6.19525Z" fill="#1F1F1F"/>
</g>
</svg>
