<svg width="48" height="48" viewBox="0 0 48 48" fill="none" xmlns="http://www.w3.org/2000/svg">
<path opacity="0.1" d="M24.0012 3.13313e-08C19.2544 -0.000242462 14.6142 1.40713 10.6672 4.04413C6.72027 6.68114 3.64395 10.4293 1.82725 14.8147C0.0105635 19.2001 -0.464892 24.0258 0.461014 28.6814C1.38692 33.337 3.6726 37.6135 7.02901 40.9701C10.3854 44.3267 14.6618 46.6126 19.3174 47.5387C23.973 48.4649 28.7986 47.9897 33.1841 46.1732C37.5696 44.3568 41.318 41.2806 43.9552 37.3338C46.5924 33.387 48 28.7486 48 24.0018C48 17.6369 45.4716 11.5307 40.971 7.02987C36.4704 2.52903 30.3662 0.00032519 24.0012 3.13313e-08Z" fill="#1F1F1F"/>
</svg>
