<svg width="32" height="32" viewBox="0 0 32 32" fill="none" xmlns="http://www.w3.org/2000/svg">
<g opacity="0.5">
<path d="M16.0507 3C13.4696 2.99987 10.9464 3.76513 8.8003 5.199C6.65415 6.63287 4.9814 8.67095 3.99357 11.0555C3.00574 13.4401 2.74721 16.064 3.25068 18.5955C3.75414 21.127 4.99698 23.4524 6.82203 25.2775C8.64708 27.1026 10.9724 28.3456 13.5038 28.8492C16.0353 29.3528 18.6593 29.0944 21.0439 28.1067C23.4285 27.119 25.4667 25.4463 26.9006 23.3003C28.3346 21.1542 29.1 18.6311 29.1 16.05C29.1 12.589 27.7252 9.26982 25.278 6.82249C22.8308 4.37516 19.5116 3.00018 16.0507 3ZM22.6193 10.7953L19.094 18.5953C18.9906 18.8241 18.8054 19.0058 18.5747 19.1047L11.1213 22.2987C10.9366 22.3788 10.7319 22.4016 10.5341 22.3639C10.3362 22.3263 10.1542 22.23 10.0118 22.0876C9.86935 21.9451 9.77305 21.7632 9.73541 21.5653C9.69776 21.3674 9.7205 21.1628 9.80067 20.978L13.0007 13.5247C13.0992 13.2946 13.2802 13.1096 13.508 13.006L21.2893 9.46667C21.4753 9.38123 21.683 9.35467 21.8845 9.39056C22.086 9.42645 22.2717 9.52307 22.4168 9.66747C22.5618 9.81187 22.6593 9.99716 22.6961 10.1985C22.7329 10.3998 22.7073 10.6076 22.6227 10.794L22.6193 10.7953Z" fill="#1F1F1F"/>
</g>
</svg>
