<svg width="32" height="32" viewBox="0 0 32 32" fill="none" xmlns="http://www.w3.org/2000/svg">
<path d="M16.0507 3.00012C13.4696 2.99999 10.9464 3.76525 8.8003 5.19912C6.65415 6.63299 4.9814 8.67108 3.99357 11.0556C3.00574 13.4402 2.74721 16.0641 3.25068 18.5956C3.75414 21.1271 4.99698 23.4525 6.82203 25.2776C8.64708 27.1028 10.9724 28.3457 13.5038 28.8493C16.0353 29.3529 18.6593 29.0945 21.0439 28.1068C23.4285 27.1191 25.4667 25.4465 26.9006 23.3004C28.3346 21.1543 29.1 18.6312 29.1 16.0501C29.1 12.5892 27.7252 9.26995 25.278 6.82261C22.8308 4.37528 19.5116 3.0003 16.0507 3.00012ZM22.6193 10.7955L19.094 18.5955C18.9906 18.8242 18.8054 19.0059 18.5747 19.1048L11.1213 22.2988C10.9366 22.379 10.7319 22.4017 10.5341 22.3641C10.3362 22.3264 10.1542 22.2301 10.0118 22.0877C9.86935 21.9453 9.77305 21.7633 9.73541 21.5654C9.69776 21.3675 9.7205 21.1629 9.80067 20.9781L13.0007 13.5248C13.0992 13.2947 13.2802 13.1097 13.508 13.0061L21.2893 9.46679C21.4753 9.38135 21.683 9.35479 21.8845 9.39068C22.086 9.42657 22.2717 9.52319 22.4168 9.66759C22.5618 9.81199 22.6593 9.99728 22.6961 10.1986C22.7329 10.4 22.7073 10.6077 22.6227 10.7941L22.6193 10.7955Z" fill="#4C0099"/>
</svg>
