<svg width="32" height="32" viewBox="0 0 32 32" fill="none" xmlns="http://www.w3.org/2000/svg">
<g opacity="0.5">
<path d="M25.0926 8.45501C23.8851 7.24958 22.4515 6.29445 20.874 5.64441C19.2965 4.99437 17.6061 4.66221 15.9 4.66701H15.808C14.0866 4.65496 12.3799 4.98359 10.786 5.63398C9.19223 6.28437 7.74284 7.24365 6.52135 8.45659C5.29987 9.66952 4.33042 11.1121 3.66885 12.7013C3.00729 14.2905 2.66667 15.9949 2.66663 17.7163V24.743C2.66751 25.5414 2.98506 26.3068 3.5496 26.8714C4.11414 27.4359 4.87957 27.7535 5.67796 27.7543H7.68529C8.48368 27.7535 9.24911 27.4359 9.81365 26.8714C10.3782 26.3068 10.6957 25.5414 10.6966 24.743V19.7243C10.6957 18.926 10.3782 18.1605 9.81365 17.596C9.24911 17.0314 8.48368 16.7139 7.68529 16.713H4.71863C4.97095 13.9553 6.25005 11.3929 8.30245 9.53377C10.3548 7.67461 13.0308 6.65429 15.8 6.67501H15.8146C18.584 6.65397 21.2601 7.67416 23.3127 9.53337C25.3653 11.3926 26.6444 13.9551 26.8966 16.713H23.93C23.1316 16.7139 22.3661 17.0314 21.8016 17.596C21.2371 18.1605 20.9195 18.926 20.9186 19.7243V24.7437C20.9195 25.5421 21.2371 26.3075 21.8016 26.872C22.3661 27.4366 23.1316 27.7541 23.93 27.755H25.9373C26.7357 27.7541 27.5011 27.4366 28.0657 26.872C28.6302 26.3075 28.9477 25.5421 28.9486 24.7437V17.7163C28.9536 15.9937 28.6151 14.2873 27.9529 12.697C27.2907 11.1067 26.3181 9.66437 25.092 8.45434L25.0926 8.45501Z" fill="#1F1F1F"/>
</g>
</svg>
