<svg width="32" height="32" viewBox="0 0 32 32" fill="none" xmlns="http://www.w3.org/2000/svg">
<path d="M25.0925 8.45495C23.885 7.24952 22.4514 6.29439 20.8739 5.64434C19.2964 4.9943 17.606 4.66215 15.8998 4.66695H15.8078C14.0865 4.6549 12.3797 4.98353 10.7859 5.63392C9.19211 6.2843 7.74272 7.24359 6.52123 8.45652C5.29974 9.66946 4.3303 11.1121 3.66873 12.7013C3.00717 14.2905 2.66655 15.9949 2.6665 17.7163V24.7429C2.66739 25.5413 2.98493 26.3068 3.54948 26.8713C4.11402 27.4359 4.87945 27.7534 5.67784 27.7543H7.68517C8.48355 27.7534 9.24899 27.4359 9.81353 26.8713C10.3781 26.3068 10.6956 25.5413 10.6965 24.7429V19.7243C10.6956 18.9259 10.3781 18.1605 9.81353 17.5959C9.24899 17.0314 8.48355 16.7138 7.68517 16.7129H4.7185C4.97083 13.9552 6.24993 11.3929 8.30233 9.53371C10.3547 7.67455 13.0307 6.65423 15.7998 6.67495H15.8145C18.5838 6.65391 21.26 7.6741 23.3126 9.53331C25.3652 11.3925 26.6443 13.955 26.8965 16.7129H23.9298C23.1315 16.7138 22.366 17.0314 21.8015 17.5959C21.2369 18.1605 20.9194 18.9259 20.9185 19.7243V24.7436C20.9194 25.542 21.2369 26.3074 21.8015 26.872C22.366 27.4365 23.1315 27.7541 23.9298 27.7549H25.9372C26.7356 27.7541 27.501 27.4365 28.0655 26.872C28.6301 26.3074 28.9476 25.542 28.9485 24.7436V17.7163C28.9535 15.9936 28.615 14.2872 27.9528 12.6969C27.2906 11.1066 26.318 9.6643 25.0918 8.45428L25.0925 8.45495Z" fill="#4C0099"/>
</svg>
