<svg width="32" height="32" viewBox="0 0 32 32" fill="none" xmlns="http://www.w3.org/2000/svg">
<path d="M21.5747 4.00001C20.4061 3.99809 19.2532 4.26888 18.2076 4.79084C17.1621 5.3128 16.2528 6.07153 15.552 7.00668C14.6023 5.74509 13.2802 4.81383 11.7725 4.34447C10.2648 3.8751 8.64776 3.89138 7.14981 4.39099C5.65186 4.8906 4.34878 5.84829 3.42469 7.12872C2.5006 8.40916 2.00223 9.94761 2 11.5267C2 20.544 14.528 27.66 15.0613 27.962C15.2112 28.046 15.3802 28.0901 15.552 28.0901C15.7238 28.0901 15.8928 28.046 16.0427 27.962C18.3467 26.6124 20.5091 25.0345 22.4973 23.252C26.8807 19.3067 29.1033 15.362 29.1033 11.5267C29.1005 9.531 28.3063 7.6179 26.895 6.20693C25.4837 4.79596 23.5703 4.0023 21.5747 4.00001Z" fill="#4C0099"/>
</svg>
