<svg width="32" height="32" viewBox="0 0 32 32" fill="none" xmlns="http://www.w3.org/2000/svg">
<g opacity="0.7">
<path d="M16.0371 10.0177V15.461L20.7511 18.183C20.8675 18.2477 20.9699 18.335 21.0523 18.4397C21.1347 18.5444 21.1955 18.6644 21.231 18.7929C21.2665 18.9213 21.2761 19.0555 21.2593 19.1876C21.2424 19.3198 21.1994 19.4473 21.1328 19.5626C21.0662 19.678 20.9772 19.779 20.8712 19.8597C20.7652 19.9403 20.6441 19.9991 20.5152 20.0325C20.3862 20.0659 20.2518 20.0733 20.12 20.0543C19.9881 20.0353 19.8613 19.9902 19.7471 19.9217L14.5284 16.9103L14.5051 16.8957C14.4877 16.885 14.4711 16.8743 14.4551 16.863L14.4171 16.835C14.4044 16.825 14.3917 16.815 14.3791 16.805C14.3664 16.795 14.3517 16.781 14.3384 16.7683L14.3091 16.7397C14.2957 16.7257 14.2831 16.7117 14.2704 16.697L14.2451 16.6663C14.2337 16.6517 14.2224 16.637 14.2117 16.6217C14.2011 16.6063 14.1951 16.5977 14.1871 16.5857C14.1791 16.5737 14.1697 16.5577 14.1611 16.543C14.1524 16.5283 14.1451 16.5143 14.1371 16.4997C14.1291 16.485 14.1244 16.4737 14.1177 16.4603C14.1111 16.447 14.1031 16.427 14.0957 16.4097C14.0884 16.3923 14.0864 16.3843 14.0817 16.3717C14.0771 16.359 14.0697 16.3357 14.0644 16.3177C14.0591 16.2997 14.0571 16.291 14.0537 16.277C14.0504 16.263 14.0457 16.2423 14.0424 16.2243C14.0391 16.2063 14.0371 16.1923 14.0351 16.1757C14.0331 16.159 14.0311 16.145 14.0297 16.1297C14.0284 16.1143 14.0297 16.0897 14.0297 16.069C14.0297 16.0597 14.0297 16.051 14.0297 16.0417V10.0177C14.0365 9.75596 14.1452 9.50724 14.3327 9.32452C14.5202 9.1418 14.7716 9.03954 15.0334 9.03954C15.2952 9.03954 15.5466 9.1418 15.7341 9.32452C15.9216 9.50724 16.0303 9.75596 16.0371 10.0177ZM27.4844 6.54501C27.301 6.46901 27.0992 6.4491 26.9044 6.48778C26.7097 6.52646 26.5308 6.62201 26.3904 6.76234L24.5904 8.56234L23.5511 7.523C21.8667 5.84011 19.7213 4.69437 17.3859 4.23061C15.0505 3.76685 12.6301 4.0059 10.4305 4.91753C8.23099 5.82916 6.3511 7.37245 5.02851 9.3523C3.70591 11.3322 3 13.6597 3 16.0407C3 18.4217 3.70591 20.7492 5.02851 22.729C6.3511 24.7089 8.23099 26.2522 10.4305 27.1638C12.6301 28.0754 15.0505 28.3145 17.3859 27.8507C19.7213 27.387 21.8667 26.2412 23.5511 24.5583C23.6443 24.4649 23.7182 24.3541 23.7685 24.2321C23.8189 24.1101 23.8447 23.9794 23.8445 23.8475C23.8444 23.7155 23.8182 23.5849 23.7676 23.4631C23.717 23.3412 23.6428 23.2305 23.5494 23.1373C23.456 23.0441 23.3451 22.9703 23.2232 22.9199C23.1012 22.8696 22.9705 22.8437 22.8386 22.8439C22.7066 22.844 22.576 22.8702 22.4541 22.9208C22.3323 22.9715 22.2216 23.0456 22.1284 23.139C20.7245 24.5427 18.9359 25.4986 16.9888 25.8859C15.0416 26.2731 13.0234 26.0743 11.1892 25.3145C9.35509 24.5547 7.78743 23.2681 6.68449 21.6174C5.58155 19.9667 4.99286 18.026 4.99286 16.0407C4.99286 14.0554 5.58155 12.1147 6.68449 10.464C7.78743 8.81326 9.35509 7.52666 11.1892 6.76688C13.0234 6.00709 15.0416 5.80824 16.9888 6.19547C18.9359 6.5827 20.7245 7.53861 22.1284 8.94234L23.1677 9.98167L21.3677 11.7817C21.2275 11.9221 21.1321 12.101 21.0935 12.2956C21.0548 12.4903 21.0748 12.692 21.1508 12.8754C21.2267 13.0587 21.3553 13.2154 21.5203 13.3257C21.6853 13.436 21.8793 13.4949 22.0777 13.495H27.0971C27.3633 13.495 27.6187 13.3892 27.807 13.2009C27.9953 13.0127 28.1011 12.7573 28.1011 12.491V7.47234C28.101 7.27378 28.0421 7.07971 27.9317 6.91464C27.8214 6.74958 27.6645 6.62095 27.4811 6.54501H27.4844Z" fill="#1F1F1F"/>
</g>
</svg>
