<svg width="32" height="32" viewBox="0 0 32 32" fill="none" xmlns="http://www.w3.org/2000/svg">
<g opacity="0.7">
<path d="M17.0767 10.0172V15.4605L21.7907 18.1825C21.9071 18.2473 22.0095 18.3345 22.0919 18.4392C22.1743 18.5439 22.2351 18.664 22.2706 18.7924C22.3061 18.9208 22.3157 19.055 22.2989 19.1872C22.282 19.3193 22.239 19.4468 22.1724 19.5622C22.1058 19.6776 22.0168 19.7785 21.9108 19.8592C21.8048 19.9399 21.6837 19.9986 21.5547 20.032C21.4258 20.0654 21.2914 20.0728 21.1596 20.0538C21.0277 20.0348 20.9009 19.9897 20.7867 19.9212L15.5707 16.9099L15.5473 16.8952C15.53 16.8845 15.5133 16.8739 15.4973 16.8625L15.46 16.8365C15.4473 16.8265 15.4347 16.8165 15.422 16.8065C15.4093 16.7965 15.3947 16.7825 15.3813 16.7699L15.352 16.7412C15.3387 16.7272 15.326 16.7132 15.3133 16.6985L15.288 16.6679C15.2767 16.6532 15.2653 16.6385 15.2547 16.6232C15.244 16.6079 15.238 16.5992 15.23 16.5872C15.222 16.5752 15.2127 16.5592 15.204 16.5445C15.1953 16.5299 15.188 16.5159 15.18 16.5012C15.172 16.4865 15.1673 16.4752 15.1607 16.4619C15.154 16.4485 15.146 16.4285 15.1387 16.4112C15.1313 16.3939 15.1293 16.3859 15.1247 16.3732C15.12 16.3605 15.1127 16.3372 15.1073 16.3192C15.102 16.3012 15.1 16.2925 15.0967 16.2785C15.0933 16.2645 15.0887 16.2439 15.0853 16.2259C15.082 16.2079 15.08 16.1939 15.078 16.1772C15.076 16.1605 15.074 16.1465 15.0727 16.1312C15.0713 16.1159 15.0727 16.0912 15.0727 16.0705C15.0727 16.0612 15.0727 16.0525 15.0727 16.0432V10.0172C15.0692 9.88322 15.0926 9.74991 15.1415 9.62512C15.1904 9.50033 15.2638 9.38659 15.3573 9.29061C15.4509 9.19462 15.5627 9.11834 15.6862 9.06625C15.8096 9.01417 15.9423 8.98733 16.0763 8.98733C16.2104 8.98733 16.343 9.01417 16.4665 9.06625C16.59 9.11834 16.7018 9.19462 16.7954 9.29061C16.8889 9.38659 16.9623 9.50033 17.0112 9.62512C17.06 9.74991 17.0835 9.88322 17.08 10.0172H17.0767ZM24.5907 7.52254C22.3299 5.26682 19.2666 4 16.073 4C12.8794 4 9.81611 5.26682 7.55533 7.52254L6.51333 8.56187L4.71333 6.76187C4.57289 6.62166 4.39404 6.52622 4.19938 6.4876C4.00472 6.44898 3.80298 6.46892 3.61964 6.54489C3.4363 6.62087 3.2796 6.74947 3.16931 6.91446C3.05902 7.07944 3.00011 7.27342 3 7.47187V12.4912C3 12.7575 3.10578 13.0129 3.29406 13.2011C3.48235 13.3894 3.73772 13.4952 4.004 13.4952H9.02333C9.22179 13.4951 9.41576 13.4362 9.58075 13.3259C9.74574 13.2156 9.87434 13.0589 9.95031 12.8756C10.0263 12.6922 10.0462 12.4905 10.0076 12.2958C9.96898 12.1012 9.87354 11.9223 9.73333 11.7819L7.93333 9.98187L8.97267 8.94254C10.3766 7.53849 12.1653 6.58228 14.1126 6.19485C16.06 5.80741 18.0785 6.00614 19.9128 6.76591C21.7472 7.52568 23.3151 8.81236 24.4183 10.4632C25.5214 12.1141 26.1102 14.055 26.1102 16.0405C26.1102 18.026 25.5214 19.967 24.4183 21.6178C23.3151 23.2687 21.7472 24.5554 19.9128 25.3152C18.0785 26.0749 16.06 26.2737 14.1126 25.8862C12.1653 25.4988 10.3766 24.5426 8.97267 23.1385C8.88001 23.0427 8.76921 22.9663 8.64672 22.9138C8.52423 22.8613 8.39251 22.8336 8.25924 22.8325C8.12597 22.8315 7.99381 22.8569 7.87047 22.9074C7.74713 22.9579 7.63509 23.0325 7.54087 23.1267C7.44665 23.221 7.37214 23.3331 7.32169 23.4564C7.27124 23.5798 7.24585 23.712 7.24701 23.8453C7.24817 23.9785 7.27585 24.1102 7.32845 24.2327C7.38104 24.3552 7.45749 24.4659 7.55333 24.5585C9.81245 26.8178 12.8765 28.0872 16.0715 28.0873C17.6535 28.0873 19.2201 27.7758 20.6817 27.1705C22.1433 26.5651 23.4713 25.6778 24.59 24.5592C25.7087 23.4406 26.5961 22.1126 27.2016 20.6511C27.807 19.1895 28.1187 17.623 28.1187 16.041C28.1188 14.459 27.8073 12.8925 27.2019 11.4309C26.5966 9.96928 25.7093 8.64122 24.5907 7.52254Z" fill="#1F1F1F"/>
</g>
</svg>
