<svg width="32" height="32" viewBox="0 0 32 32" fill="none" xmlns="http://www.w3.org/2000/svg">
<g opacity="0.7">
<path d="M10.5347 15.1535C10.3477 15.2309 10.1419 15.2512 9.94336 15.2116C9.74482 15.1721 9.56247 15.0746 9.41937 14.9315L5.3267 10.8388C5.23166 10.7438 5.15626 10.6309 5.10482 10.5068C5.05339 10.3826 5.02691 10.2495 5.02691 10.1151C5.02691 9.98072 5.05339 9.84764 5.10482 9.72347C5.15626 9.5993 5.23166 9.48648 5.3267 9.39146L9.41803 5.29946C9.56115 5.15645 9.74344 5.05907 9.94188 5.01963C10.1403 4.98019 10.346 5.00046 10.5329 5.07787C10.7198 5.15527 10.8796 5.28636 10.9921 5.45454C11.1045 5.62273 11.1646 5.82047 11.1647 6.02279L11.1647 9.08945L26.512 9.08946C26.7788 9.09627 27.0324 9.20704 27.2187 9.39814C27.405 9.58925 27.5092 9.84557 27.5092 10.1125C27.5092 10.3793 27.405 10.6357 27.2187 10.8268C27.0324 11.0179 26.7788 11.1286 26.512 11.1355L11.1647 11.1355L11.1647 14.2021C11.1647 14.4045 11.1047 14.6023 10.9924 14.7705C10.88 14.9388 10.7203 15.0699 10.5334 15.1475L10.5347 15.1535ZM23.1427 27.2095L27.2354 23.1168C27.3304 23.0218 27.4058 22.9089 27.4572 22.7848C27.5087 22.6606 27.5352 22.5275 27.5352 22.3931C27.5352 22.2587 27.5087 22.1256 27.4572 22.0015C27.4058 21.8773 27.3304 21.7645 27.2354 21.6695L23.1427 17.5768C22.9996 17.4338 22.8173 17.3364 22.6189 17.297C22.4204 17.2575 22.2148 17.2778 22.0278 17.3552C21.8409 17.4326 21.6811 17.5637 21.5687 17.7319C21.4562 17.9001 21.3961 18.0978 21.396 18.3001L21.396 21.3668L6.04937 21.3668C5.91283 21.3633 5.77697 21.3872 5.64981 21.437C5.52264 21.4869 5.40674 21.5617 5.30894 21.657C5.21113 21.7523 5.1334 21.8663 5.08033 21.9922C5.02726 22.118 4.99992 22.2532 4.99992 22.3898C4.99992 22.5264 5.02726 22.6616 5.08033 22.7874C5.1334 22.9133 5.21113 23.0272 5.30894 23.1226C5.40674 23.2179 5.52264 23.2927 5.64981 23.3425C5.77697 23.3924 5.91283 23.4163 6.04937 23.4128L21.396 23.4128L21.396 26.4795C21.3961 26.6818 21.4562 26.8795 21.5687 27.0477C21.6811 27.2159 21.8409 27.347 22.0278 27.4244C22.2148 27.5018 22.4204 27.522 22.6189 27.4826C22.8173 27.4432 22.9996 27.3458 23.1427 27.2028L23.1427 27.2095Z" fill="#1F1F1F"/>
</g>
</svg>
