<svg width="32" height="32" viewBox="0 0 32 32" fill="none" xmlns="http://www.w3.org/2000/svg">
<g opacity="0.7">
<path d="M28.2815 21.0483L23.1661 26.1637C22.9742 26.3554 22.7141 26.4631 22.4428 26.4631C22.1715 26.4631 21.9113 26.3554 21.7194 26.1637L16.6035 21.0477C16.4604 20.9046 16.3631 20.7223 16.3236 20.5238C16.2842 20.3254 16.3045 20.1197 16.3819 19.9328C16.4593 19.7459 16.5904 19.5861 16.7585 19.4736C16.9267 19.3612 17.1245 19.3011 17.3268 19.301H21.4194V13.1623C21.4263 12.8955 21.537 12.642 21.7281 12.4557C21.9192 12.2694 22.1756 12.1651 22.4424 12.1651C22.7093 12.1651 22.9657 12.2694 23.1568 12.4557C23.3479 12.642 23.4586 12.8955 23.4654 13.1623V19.3017H27.5595C27.7618 19.3018 27.9595 19.3619 28.1277 19.4743C28.2959 19.5868 28.427 19.7465 28.5044 19.9335C28.5818 20.1204 28.602 20.3261 28.5626 20.5245C28.5232 20.7229 28.4258 20.9052 28.2828 21.0483H28.2815ZM14.2575 14.1857H5.04945C4.91291 14.1822 4.77705 14.2061 4.64989 14.2559C4.52272 14.3057 4.40683 14.3805 4.30902 14.4759C4.21122 14.5712 4.13349 14.6852 4.08042 14.811C4.02734 14.9369 4 15.0721 4 15.2087C4 15.3453 4.02734 15.4805 4.08042 15.6063C4.13349 15.7322 4.21122 15.8461 4.30902 15.9414C4.40683 16.0368 4.52272 16.1116 4.64989 16.1614C4.77705 16.2113 4.91291 16.2352 5.04945 16.2317H14.2575C14.394 16.2352 14.5298 16.2113 14.657 16.1614C14.7842 16.1116 14.9001 16.0368 14.9979 15.9414C15.0957 15.8461 15.1734 15.7322 15.2265 15.6063C15.2796 15.4805 15.3069 15.3453 15.3069 15.2087C15.3069 15.0721 15.2796 14.9369 15.2265 14.811C15.1734 14.6852 15.0957 14.5712 14.9979 14.4759C14.9001 14.3805 14.7842 14.3057 14.657 14.2559C14.5298 14.2061 14.394 14.1822 14.2575 14.1857ZM5.04945 8.04633H22.4428C22.5793 8.04982 22.7152 8.02594 22.8423 7.97609C22.9695 7.92625 23.0854 7.85146 23.1832 7.75612C23.281 7.66078 23.3587 7.54682 23.4118 7.42097C23.4649 7.29512 23.4922 7.15992 23.4922 7.02333C23.4922 6.88675 23.4649 6.75155 23.4118 6.6257C23.3587 6.49985 23.281 6.38589 23.1832 6.29055C23.0854 6.19521 22.9695 6.12042 22.8423 6.07057C22.7152 6.02073 22.5793 5.99685 22.4428 6.00033H5.04945C4.78266 6.00714 4.52908 6.11791 4.34279 6.30902C4.1565 6.50013 4.05224 6.75645 4.05224 7.02333C4.05224 7.29022 4.1565 7.54654 4.34279 7.73765C4.52908 7.92875 4.78266 8.03952 5.04945 8.04633ZM12.2115 22.3703H5.04945C4.91291 22.3668 4.77705 22.3907 4.64989 22.4406C4.52272 22.4904 4.40683 22.5652 4.30902 22.6606C4.21122 22.7559 4.13349 22.8698 4.08042 22.9957C4.02734 23.1215 4 23.2568 4 23.3933C4 23.5299 4.02734 23.6651 4.08042 23.791C4.13349 23.9168 4.21122 24.0308 4.30902 24.1261C4.40683 24.2215 4.52272 24.2963 4.64989 24.3461C4.77705 24.3959 4.91291 24.4198 5.04945 24.4163H12.2115C12.4782 24.4095 12.7318 24.2988 12.9181 24.1076C13.1044 23.9165 13.2087 23.6602 13.2087 23.3933C13.2087 23.1265 13.1044 22.8701 12.9181 22.679C12.7318 22.4879 12.4782 22.3771 12.2115 22.3703Z" fill="#1F1F1F"/>
</g>
</svg>
