<svg width="32" height="32" viewBox="0 0 32 32" fill="none" xmlns="http://www.w3.org/2000/svg">
<g opacity="0.5">
<path d="M23.4451 20.4127C22.7626 20.4125 22.087 20.5493 21.4583 20.815C20.8296 21.0806 20.2607 21.4698 19.7851 21.9594L13.8898 18.1694C14.3528 16.9802 14.3528 15.6606 13.8898 14.4714L19.7851 10.6814C20.6703 11.5866 21.86 12.131 23.1236 12.209C24.3873 12.287 25.6349 11.893 26.6246 11.1035C27.6143 10.3139 28.2756 9.18506 28.4804 7.93567C28.6852 6.68628 28.4188 5.40536 27.7328 4.34122C27.0469 3.27707 25.9903 2.50548 24.7679 2.17603C23.5454 1.84657 22.2442 1.98271 21.1165 2.55806C19.9887 3.1334 19.1147 4.10697 18.6639 5.29005C18.2131 6.47312 18.2176 7.78144 18.6765 8.96139L12.7811 12.7514C12.0712 12.0224 11.1599 11.5216 10.1639 11.3132C9.16782 11.1048 8.13225 11.1981 7.18953 11.5813C6.24682 11.9645 5.43979 12.6201 4.87163 13.4644C4.30348 14.3086 4 15.3031 4 16.3207C4 17.3383 4.30348 18.3328 4.87163 19.1771C5.43979 20.0213 6.24682 20.677 7.18953 21.0602C8.13225 21.4433 9.16782 21.5367 10.1639 21.3283C11.1599 21.1198 12.0712 20.6191 12.7811 19.8901L18.6765 23.6801C18.2818 24.6985 18.2236 25.8166 18.5103 26.8706C18.797 27.9245 19.4136 28.859 20.2698 29.5373C21.1259 30.2155 22.1768 30.6018 23.2684 30.6396C24.36 30.6775 25.435 30.3649 26.3361 29.7476C27.2372 29.1303 27.9171 28.2408 28.2761 27.2092C28.6351 26.1776 28.6545 25.0582 28.3313 24.0149C28.0082 22.9715 27.3595 22.059 26.4803 21.4109C25.601 20.7629 24.5374 20.4133 23.4451 20.4134V20.4127Z" fill="#1F1F1F"/>
</g>
</svg>
